<?xml version="1.0" encoding="UTF-8"?>
<svg id="Capa_2" data-name="Capa 2" xmlns="http://www.w3.org/2000/svg" viewBox="0 0 680.55 101.26">
  <defs>
    <style>
      .cls-1 {
        fill: #f7f7f2;
      }
    </style>
  </defs>
  <g id="Design">
    <g>
      <g>
        <path class="cls-1" d="M353.03,32.94c3.84-2.56,8.8-3.8,14.87-3.71,6.47,0,11.88,1.47,16.22,4.42,4.34,2.95,6.93,6.96,7.79,12.04l5.8-1.08c-.4-4.14-1.92-7.79-4.55-10.96s-6.09-5.64-10.39-7.42c-4.29-1.78-9.12-2.66-14.46-2.66s-9.98.83-14.03,2.5c-4.05,1.66-7.22,3.98-9.51,6.95-2.29,2.97-3.44,6.38-3.44,10.25,0,3.24.78,5.97,2.33,8.19,1.55,2.23,4.25,4.23,8.09,6,3.84,1.78,9.23,3.61,16.15,5.5,6.61,1.8,11.61,3.4,15,4.79,3.39,1.39,5.67,2.93,6.84,4.62,1.17,1.69,1.75,3.86,1.75,6.51,0,4.86-1.95,8.7-5.83,11.53-3.89,2.83-9.14,4.25-15.75,4.25s-11.95-1.35-16.42-4.05c-4.47-2.7-7.32-6.29-8.53-10.79l-5.8,1.08c1.3,6.07,4.67,10.82,10.12,14.26,5.44,3.44,12.27,5.16,20.5,5.16,8.63,0,15.42-1.88,20.37-5.63,4.95-3.75,7.42-8.94,7.42-15.54,0-3.73-.82-6.86-2.46-9.37-1.64-2.52-4.5-4.72-8.56-6.61-4.07-1.89-9.75-3.75-17.03-5.6-5.76-1.44-10.25-2.83-13.49-4.18-3.24-1.35-5.51-2.84-6.81-4.48-1.3-1.64-1.96-3.61-1.96-5.9,0-4.14,1.92-7.49,5.77-10.05Z"/>
        <path class="cls-1" d="M419.8,5.36h-5.67v20.23h-17.13v5.67h17.13v43.03c0,3.15.07,5.95.2,8.4.13,2.45.74,4.87,1.82,7.25,1.39,3.06,3.48,5.34,6.27,6.84,2.79,1.51,5.96,2.36,9.51,2.56s7.15-.1,10.79-.91v-5.4c-5.66.94-10.25,1.05-13.76.3s-6.07-2.73-7.69-5.97c-.85-1.71-1.31-3.53-1.38-5.46-.07-1.93-.1-4.47-.1-7.62V31.26h22.93v-5.67h-22.93V5.36Z"/>
        <path class="cls-1" d="M500.98,65.38c0,3.91-.45,7.62-1.35,11.13-.9,3.51-2.32,6.61-4.25,9.31-1.93,2.7-4.46,4.82-7.59,6.37s-6.91,2.33-11.36,2.33c-3.78,0-7.14-.61-10.08-1.82-2.95-1.21-5.45-3.07-7.52-5.56-2.07-2.5-3.63-5.65-4.69-9.48-1.06-3.82-1.58-8.32-1.58-13.49V25.59h-5.67v39.65c0,4.32.43,8.28,1.28,11.9.85,3.62,2.11,6.85,3.78,9.68,1.66,2.83,3.7,5.23,6.1,7.18,2.4,1.96,5.15,3.45,8.23,4.48,3.08,1.03,6.46,1.55,10.15,1.55,5.35,0,10.29-1.17,14.8-3.51,4.13-2.13,7.5-5.44,10.15-9.88v11.77h5.26V25.59h-5.67v39.79Z"/>
        <path class="cls-1" d="M569.22,39.66c-2.32-4.6-5.45-8.32-9.41-11.14-4.65-3.3-10.38-4.96-17.16-4.96s-12.06,1.7-16.62,5.09c-4.56,3.39-8.04,7.99-10.42,13.79-2.38,5.8-3.57,12.27-3.57,19.42s1.21,13.84,3.64,19.66c2.43,5.82,5.99,10.43,10.69,13.83,4.7,3.39,10.49,5.09,17.37,5.09,6.43,0,11.89-1.71,16.39-5.12,4.03-3.06,7.19-7.1,9.51-12.09v15.2h5.26V1.31h-5.67v38.35ZM566.72,78.7c-1.93,4.97-4.82,8.89-8.67,11.77-3.84,2.88-8.62,4.32-14.33,4.32s-10.33-1.44-14.13-4.32c-3.8-2.88-6.67-6.8-8.6-11.77-1.93-4.97-2.9-10.58-2.9-16.83s.92-11.77,2.76-16.69c1.84-4.92,4.66-8.81,8.46-11.67,3.8-2.85,8.6-4.28,14.4-4.28s10.42,1.39,14.26,4.18c3.84,2.79,6.74,6.64,8.7,11.57,1.96,4.92,2.93,10.55,2.93,16.89s-.97,11.86-2.9,16.83Z"/>
        <rect class="cls-1" x="584.35" y="1.31" width="5.67" height="8.63"/>
        <rect class="cls-1" x="584.35" y="25.59" width="5.67" height="72.83"/>
        <path class="cls-1" d="M658.96,41.98c-2.54-5.75-6.28-10.26-11.23-13.52-4.95-3.26-11.04-4.89-18.28-4.89s-13.07,1.6-18.04,4.79c-4.97,3.19-8.76,7.67-11.36,13.42-2.61,5.76-3.91,12.45-3.91,20.1s1.28,14.23,3.84,20.03,6.32,10.34,11.26,13.62c4.95,3.28,11.01,4.92,18.21,4.92s13.21-1.62,18.17-4.86c4.97-3.24,8.73-7.74,11.3-13.52s3.84-12.51,3.84-20.2-1.27-14.14-3.81-19.89ZM649.95,85.65c-4.5,6.09-11.33,9.14-20.5,9.14s-15.72-3.01-20.33-9.04c-4.61-6.02-6.91-13.98-6.91-23.87,0-6.38.99-12.03,2.97-16.93,1.98-4.9,4.98-8.74,9-11.53,4.02-2.79,9.12-4.18,15.27-4.18,9.13,0,15.95,2.96,20.47,8.87,4.52,5.91,6.78,13.84,6.78,23.77s-2.25,17.68-6.74,23.77Z"/>
      </g>
      <g>
        <polygon class="cls-1" points="659.1 11.26 661.44 11.26 661.44 17.36 663.24 17.36 663.24 11.26 665.58 11.26 665.58 9.71 659.1 9.71 659.1 11.26"/>
        <path class="cls-1" d="M671.97,9.71l-1.31,3.72c-.1.34-.21.72-.32,1.12-.01.04-.02.08-.03.12-.11-.45-.22-.86-.34-1.28l-1.3-3.69h-2.46l-.56,7.66h1.75l.28-4.47c.01-.34.03-.68.04-1.02.1.39.19.78.27,1.09l1.35,4.29h1.76l1.36-4.18c.13-.4.26-.87.38-1.32,0,.04,0,.08,0,.12,0,.38.01.72.03,1.03l.28,4.46h1.8l-.59-7.66h-2.38Z"/>
        <path class="cls-1" d="M667.01,0c-7.46,0-13.53,6.07-13.53,13.53s6.07,13.53,13.53,13.53,13.53-6.07,13.53-13.53-6.07-13.53-13.53-13.53ZM667.01,24.29c-5.93,0-10.76-4.83-10.76-10.76s4.83-10.76,10.76-10.76,10.76,4.83,10.76,10.76-4.83,10.76-10.76,10.76Z"/>
      </g>
      <path class="cls-1" d="M323.72,42.14c-3.1-5.78-7.43-10.31-12.98-13.59-5.55-3.28-11.99-4.92-19.32-4.92s-13.48,1.75-19.08,4.86c-7.27,4.02-10.63,8.69-12.07,11.36-.43.79-1.56.78-1.97-.02-2.11-4.16-4.75-7.26-8.4-9.69-6.05-4.01-13.03-6.51-21.61-6.51-7.42,0-13.85,1.66-19.29,4.99-4.75,2.91-8.56,6.76-11.44,11.55-.46.76-1.56.72-1.96-.08-1.99-3.93-4.8-7.25-8.43-9.96-5.82-4.34-13.03-6.51-21.61-6.51-7.42,0-13.85,1.66-19.29,4.99-4.75,2.91-8.56,6.76-11.44,11.55-.46.76-1.56.72-1.96-.08-1.99-3.93-4.8-7.25-8.43-9.96-5.82-4.34-13.03-6.51-21.61-6.51-7.42,0-13.85,1.66-19.29,4.99-5.44,3.33-9.65,7.89-12.64,13.69-.54,1.05-1.03,2.12-1.47,3.22-.36.91-1.65.92-2.04.03-1.3-2.98-2.84-5.68-4.63-8.09-4.16-5.63-9.29-9.49-15.39-11.58-6.1-2.09-12.84-2.15-20.22-.17-6.95,1.86-12.67,5.08-17.17,9.66-4.5,4.58-7.51,10.12-9.02,16.62-1.52,6.5-1.24,13.6.82,21.28,1.88,7.03,5.11,12.86,9.68,17.48,4.56,4.62,10.01,7.74,16.34,9.38,6.32,1.63,13.09,1.48,20.3-.45,6.77-1.82,12.54-5.27,17.3-10.36,2.18-2.34,3.96-4.89,5.33-7.66,0,0,0,.02.01.03,2.88,5.8,7.01,10.38,12.41,13.76,5.39,3.37,11.87,5.06,19.42,5.06,8.45,0,15.55-2.09,21.31-6.27,3.71-2.7,6.65-6.13,8.83-10.3.41-.79,1.51-.81,1.96-.05,2.79,4.77,6.52,8.63,11.21,11.56,5.39,3.37,11.87,5.06,19.42,5.06,8.45,0,15.55-2.09,21.31-6.27,3.71-2.7,6.65-6.13,8.83-10.3.41-.79,1.51-.81,1.96-.05,2.79,4.77,6.52,8.63,11.21,11.56,5.39,3.37,11.87,5.06,19.42,5.06,8.45,0,15.55-2.09,21.31-6.27,4.31-3.13,7.58-7.26,9.82-12.37.02.04.05.09.07.14,3.08,5.78,7.38,10.31,12.91,13.59s11.96,4.92,19.29,4.92,13.7-1.63,19.25-4.89c5.55-3.26,9.89-7.78,13.02-13.55,3.12-5.78,4.69-12.44,4.69-19.99s-1.55-14.15-4.65-19.93ZM20.21,49.95c1.86-4.43,5.81-7.46,11.85-9.07,5.17-1.38,9.31-.81,12.44,1.73,2.05,1.67,3.85,4.35,5.38,8.02l-31,8.31c-.18-3.44.27-6.44,1.33-8.98ZM54.83,70.65c-.53,3.22-1.84,5.91-3.9,8.1-2.07,2.18-4.84,3.74-8.31,4.67-5.52,1.48-10.18.81-13.98-2.01-2.78-2.06-5.02-5.13-6.7-9.2l40.86-10.95h0s2.23-.6,2.23-.6c.71-.19,1.4.35,1.4,1.09,0,.11,0,.21,0,.32,0,2.6.19,5.1.55,7.51.1.68-.44,1.28-1.12,1.27l-11.02-.19ZM116.86,72.45c-1.08,3.51-2.7,6.2-4.86,8.09s-5.31,2.83-9.44,2.83c-5.53,0-9.7-1.97-12.51-5.9-2.81-3.93-4.21-9.07-4.21-15.41,0-4.05.58-7.68,1.75-10.89,1.17-3.21,2.99-5.75,5.46-7.62,2.47-1.86,5.64-2.8,9.51-2.8,3.37,0,6.4,1.06,9.07,3.17,2.67,2.11,4.55,5.06,5.63,8.83l11.79-3.12c.82-.22,1.56.52,1.36,1.34-.84,3.47-1.27,7.17-1.27,11.09s.46,7.97,1.38,11.61c.2.8-.5,1.52-1.3,1.35l-12.36-2.58ZM179.59,72.45c-1.08,3.51-2.7,6.2-4.86,8.09s-5.31,2.83-9.44,2.83c-5.53,0-9.7-1.97-12.51-5.9-2.81-3.93-4.21-9.07-4.21-15.41,0-4.05.58-7.68,1.75-10.89,1.17-3.21,2.99-5.75,5.46-7.62,2.47-1.86,5.64-2.8,9.51-2.8,3.37,0,6.4,1.06,9.07,3.17,2.67,2.11,4.55,5.06,5.63,8.83l11.79-3.12c.82-.22,1.56.52,1.36,1.34-.84,3.47-1.27,7.17-1.27,11.09s.46,7.97,1.38,11.61c.2.8-.5,1.52-1.3,1.35l-12.36-2.58ZM242.32,72.45c-1.08,3.51-2.7,6.2-4.86,8.09s-5.31,2.83-9.44,2.83c-5.53,0-9.7-1.97-12.51-5.9-2.81-3.93-4.21-9.07-4.21-15.41,0-4.05.58-7.68,1.75-10.89,1.17-3.21,2.99-5.75,5.46-7.62,2.47-1.86,5.64-2.8,9.51-2.8,3.37,0,6.4,1.06,9.07,3.17,2.67,2.11,4.55,5.06,5.63,8.83l11.79-3.12c.82-.22,1.56.52,1.36,1.34-.85,3.45-1.27,7.15-1.27,11.09s.47,8,1.4,11.61c.21.8-.5,1.53-1.3,1.36l-12.39-2.58ZM304.61,77.41c-2.9,3.98-7.29,5.97-13.18,5.97s-10.04-1.92-12.98-5.77c-2.94-3.84-4.42-9.02-4.42-15.54,0-4.23.62-7.93,1.85-11.13,1.24-3.19,3.14-5.69,5.7-7.49,2.56-1.8,5.84-2.7,9.85-2.7,5.8,0,10.17,1.93,13.12,5.8,2.94,3.87,4.42,9.04,4.42,15.51s-1.45,11.36-4.35,15.34Z"/>
    </g>
  </g>
</svg>