<?xml version="1.0" encoding="UTF-8"?>
<svg id="Capa_2" data-name="Capa 2" xmlns="http://www.w3.org/2000/svg" viewBox="0 0 424.42 425">
  <g id="Capa_1-2" data-name="Capa 1">
    <path d="M424.34,210.32c-1.2-18.84-16.22-33.85-35.06-35.06l-85.24-.04,60.31-60.37c13.69-15.56,12.17-39.27-3.39-52.96-14.17-12.47-35.4-12.47-49.58,0l-59.41,59.35V37.54c.01-20.73-16.8-37.54-37.53-37.54s-37.54,16.81-37.54,37.54v84.06s-59.99-60.02-59.99-60.02c-14.66-14.66-38.43-14.66-53.09,0s-14.66,38.43,0,53.09l60.55,60.54-84.75.03C18.93,174.08,1.22,189.92.06,210.61c-1.16,20.69,14.68,38.41,35.37,39.57,1.4.08,2.8.08,4.2,0l83.36.03-58.86,58.9c-15.45,13.81-16.78,37.54-2.97,52.99,13.81,15.45,37.54,16.78,52.99,2.97,1.04-.93,2.03-1.92,2.97-2.97l59.8-59.76v85.11c-.01,20.73,16.8,37.54,37.53,37.54s37.54-16.81,37.54-37.54v-84.65s59.27,59.3,59.27,59.3c14.66,14.66,38.43,14.66,53.09,0,14.66-14.66,14.66-38.43,0-53.09l-58.82-58.81,83.76-.04c20.68-1.32,36.38-19.16,35.06-39.84Z"/>
  </g>
</svg>