<?xml version="1.0" encoding="UTF-8"?>
<svg id="Capa_2" data-name="Capa 2" xmlns="http://www.w3.org/2000/svg" viewBox="0 0 512 512">
  <g id="Capa_1-2" data-name="Capa 1">
    <path d="M383.47,149.87c29.12,29.1,29.12,76.48,0,105.58l-44.48,44.5c-6.23,6.25-14.44,9.37-22.63,9.37s-16.38-3.11-22.63-9.37c-12.5-12.5-12.5-32.75,0-45.25l44.48-44.5c4.16-4.16,4.16-10.92,0-15.08l-44.48-44.5c-12.5-12.5-12.5-32.75,0-45.25s32.77-12.5,45.25,0l44.48,44.5h.02ZM218.28,150.61c12.5-12.5,12.5-32.75,0-45.25s-32.77-12.5-45.25,0l-44.48,44.5c-29.12,29.1-29.12,76.48,0,105.58l44.48,44.5c6.23,6.25,14.44,9.37,22.63,9.37s16.38-3.11,22.63-9.37c12.5-12.5,12.5-32.75,0-45.25l-44.48-44.5c-4.16-4.16-4.16-10.92,0-15.08l44.48-44.5h-.02ZM512,117.31v170.69c0,64.68-52.63,117.33-117.33,117.33h-106.67v42.67h64c17.69,0,32,14.34,32,32s-14.31,32-32,32h-192c-17.69,0-32-14.34-32-32s14.31-32,32-32h64v-42.67h-106.67C52.63,405.33,0,352.68,0,288V117.33C0,52.65,52.63,0,117.33,0h277.33c64.7,0,117.33,52.65,117.33,117.33v-.02ZM448,117.31c0-29.42-23.94-53.33-53.33-53.33H117.33c-29.4,0-53.33,23.91-53.33,53.33v170.69c0,29.42,23.94,53.33,53.33,53.33h277.33c29.4,0,53.33-23.91,53.33-53.33V117.31Z"/>
  </g>
</svg>