<?xml version="1.0" encoding="UTF-8"?>
<svg id="Capa_2" data-name="Capa 2" xmlns="http://www.w3.org/2000/svg" viewBox="0 0 384 384">
  <g id="Capa_1-2" data-name="Capa 1">
    <g>
      <path d="M144,0H40C17.91,0,0,17.91,0,40v104h47.84l-.16,31.89,48,.22.16-32.11h48.16v-47.84l31.87.16.26-48-32.13-.16V0ZM96,96h-48v-48h48v48Z"/>
      <path d="M344,0h-104v47.84l-31.87-.16-.26,48,32.13.16v48.16h47.84l-.16,31.89,48,.22.16-32.11h48.16V40c0-22.09-17.91-40-40-40ZM336,96h-48v-48h48v48Z"/>
      <path d="M336.32,208.11l-48-.22-.16,32.11h-48.16v47.84l-31.87-.16-.26,48,32.13.16v48.16h104c22.09,0,40-17.91,40-40v-104h-47.84l.16-31.89ZM336,336h-48v-48h48v48Z"/>
      <path d="M144,240h-47.84l.16-31.89-48-.22-.16,32.11H0v104c0,22.09,17.91,40,40,40h104v-47.84l31.87.16.26-48-32.13-.16v-48.16ZM96,336h-48v-48h48v48Z"/>
    </g>
  </g>
</svg>